File size: 1.43 GiB
Overall bit rate: 2 107 Kbps

Video
ID: 0
Format: MPEG-4 Visual
Format profile: Advanced Simple@L5
Format settings, BVOP: 2
Format settings, QPel: No
Format settings, GMC: No warppoints
Format settings, Matrix: Default (H.263)
Codec ID: XVID
Codec ID/Hint: XviD
Bit rate: 1 651 Kbps
Width: 720 pixels
Height: 304 pixels
Display aspect ratio: 2.35:1
Frame rate: 25.000 fps
Color space: YUV
Chroma subsampling: 4:2:0
Bit depth: 8 bits
Scan type: Progressive
Compression mode: Lossy
Bits/(Pixel*Frame): 0.302
Stream size: 1.12 GiB (78%)
Writing library: XviD 1.2.1 (UTC 2008-12-04)

Audio
ID: 1
Format: AC-3
Format/Info: Audio Coding 3
Mode extension: CM (complete main)
Codec ID: 2000
Bit rate mode: Constant
Bit rate: 448 Kbps
Channel(s): 6 channels
Channel positions: Front: L C R, Side: L R, LFE
Sampling rate: 48.0 KHz
Bit depth: 16 bits
Compression mode: Lossy
Stream size: 310 MiB (21%)
Alignment: Aligned on interleaves
Interleave, duration: 64 ms (1.60 video frames)
Interleave, preload duration: 192 ms
Title: VTS_01_1 T81 3_2ch 448Kbps DELAY 0ms_new
source our own PAL DVD

Sample as per norm  

Screens:

 
http://i.imgur.com/O14ZP9I.png 
http://i.imgur.com/qlqg0LG.png 
http://i.imgur.com/3FEH65g.png 
http://i.imgur.com/bdd01V2.png